<svg width="94" height="91" viewBox="0 0 94 91" fill="none" xmlns="http://www.w3.org/2000/svg">
<path d="M0.335136 34.2504C0.741631 32.9922 1.5077 31.8819 2.53796 31.0578C3.56821 30.2336 4.81712 29.7321 6.12914 29.6156L31.0463 27.4583L40.8134 4.13257C41.3219 2.90863 42.1797 1.86314 43.2786 1.12777C44.3776 0.392392 45.6686 0 46.9892 0C48.3098 0 49.6008 0.392392 50.6998 1.12777C51.7987 1.86314 52.6565 2.90863 53.165 4.13257L62.9028 27.4583L87.8493 29.6283C89.1665 29.7394 90.4218 30.2387 91.4576 31.0634C92.4934 31.8882 93.2637 33.0017 93.6719 34.2644C94.0801 35.527 94.108 36.8826 93.7521 38.1611C93.3962 39.4397 92.6724 40.5842 91.6714 41.4512L72.7455 58.0607L78.4178 82.7264C78.7177 84.0171 78.6321 85.368 78.1717 86.6102C77.7113 87.8524 76.8965 88.9307 75.8292 89.7104C74.7618 90.49 73.4893 90.9364 72.1708 90.9937C70.8522 91.051 69.5461 90.7167 68.4157 90.0325L47.0186 76.9708L25.5753 90.0325C24.4449 90.7167 23.1388 91.051 21.8202 90.9937C20.5017 90.9364 19.2292 90.49 18.1618 89.7104C17.0945 88.9307 16.2797 87.8524 15.8193 86.6102C15.3589 85.368 15.2733 84.0171 15.5732 82.7264L21.2414 58.0354L2.31961 41.4512C1.31873 40.5812 0.596321 39.4334 0.243225 38.1522C-0.109879 36.8709 -0.0778961 35.5135 0.335136 34.2504ZM6.72071 36.3572L25.6425 52.9414C26.5634 53.7459 27.2484 54.7873 27.624 55.9536C27.9995 57.1199 28.0513 58.367 27.7738 59.5607L22.0889 84.2685L43.5153 71.2067C44.5607 70.5674 45.7611 70.2292 46.985 70.2292C48.209 70.2292 49.4093 70.5674 50.4547 71.2067L71.8518 84.2685L66.2047 59.5776C65.9271 58.3839 65.9789 57.1368 66.3544 55.9705C66.73 54.8041 67.4151 53.7627 68.336 52.9582L87.2661 36.3824C87.2676 36.3699 87.2676 36.3571 87.2661 36.3445L62.328 34.1788C61.1105 34.071 59.9453 33.6314 58.9583 32.9075C57.9712 32.1835 57.1997 31.2026 56.727 30.0707L46.9892 6.77441L37.2556 30.0707C36.7829 31.2026 36.0114 32.1835 35.0244 32.9075C34.0373 33.6314 32.8722 34.071 31.6546 34.1788L6.71231 36.3445V36.374L6.72071 36.3572Z" fill="#66929B"/>
</svg>
