<svg width="95" height="91" viewBox="0 0 95 91" fill="none" xmlns="http://www.w3.org/2000/svg">
<path d="M92.6265 41.4512L73.5121 58.0354L79.2379 82.7264C79.5409 84.0171 79.4545 85.368 78.9894 86.6102C78.5243 87.8524 77.7012 88.9307 76.623 89.7104C75.5448 90.49 74.2593 90.9364 72.9273 90.9937C71.5953 91.051 70.2759 90.7167 69.134 90.0325L47.4725 76.9708L25.8575 90.0325C24.7156 90.7167 23.3962 91.051 22.0642 90.9937C20.7322 90.9364 19.4467 90.49 18.3685 89.7104C17.2903 88.9307 16.4672 87.8524 16.0021 86.6102C15.537 85.368 15.4506 84.0171 15.7536 82.7264L21.4709 58.0607L2.35231 41.4512C1.34111 40.5842 0.609899 39.4397 0.250387 38.1611C-0.109126 36.8826 -0.080942 35.527 0.331405 34.2644C0.743751 33.0017 1.5219 31.8882 2.56828 31.0634C3.61466 30.2387 4.88268 29.7394 6.21333 29.6283L31.4138 27.4583L41.2507 4.13257C41.7644 2.90863 42.6309 1.86314 43.7411 1.12777C44.8512 0.392392 46.1554 0 47.4894 0C48.8234 0 50.1276 0.392392 51.2378 1.12777C52.3479 1.86314 53.2144 2.90863 53.7281 4.13257L63.5947 27.4583L88.7867 29.6283C90.1173 29.7394 91.3853 30.2387 92.4317 31.0634C93.4781 31.8882 94.2562 33.0017 94.6686 34.2644C95.0809 35.527 95.1091 36.8826 94.7496 38.1611C94.3901 39.4397 93.6589 40.5842 92.6477 41.4512H92.6265Z" fill="#C2A48F"/>
</svg>
